<mxfile host="app.diagrams.net" modified="2024-03-13T02:41:06.565Z" agent="Mozilla/5.0 (Windows NT 10.0; Win64; x64) AppleWebKit/537.36 (KHTML, like Gecko) Chrome/122.0.0.0 Safari/537.36" etag="QBV_59y1aerf9TZVkhf_" version="24.0.5" type="github" pages="3">
  <diagram name="word" id="ly8JrdTY6ocZCnAn5Q8D">
    <mxGraphModel dx="1674" dy="818" grid="1" gridSize="10" guides="1" tooltips="1" connect="1" arrows="1" fold="1" page="1" pageScale="1" pageWidth="827" pageHeight="1169" math="0" shadow="0">
      <root>
        <mxCell id="0" />
        <mxCell id="1" parent="0" />
        <mxCell id="aPSkY1ON9DCGhRT_XYcT-1" value="高頻度の「私」" style="swimlane;whiteSpace=wrap;html=1;" parent="1" vertex="1">
          <mxGeometry x="40" y="80" width="170" height="280.5" as="geometry" />
        </mxCell>
        <mxCell id="aPSkY1ON9DCGhRT_XYcT-2" style="edgeStyle=orthogonalEdgeStyle;rounded=0;orthogonalLoop=1;jettySize=auto;html=1;entryX=0.5;entryY=0;entryDx=0;entryDy=0;" parent="aPSkY1ON9DCGhRT_XYcT-1" edge="1">
          <mxGeometry relative="1" as="geometry">
            <mxPoint x="85" y="182" as="sourcePoint" />
            <mxPoint x="85" y="212.5" as="targetPoint" />
          </mxGeometry>
        </mxCell>
        <mxCell id="aPSkY1ON9DCGhRT_XYcT-3" value="&lt;div style=&quot;border-color: var(--border-color);&quot;&gt;&lt;div style=&quot;border-color: var(--border-color);&quot;&gt;「私」を多く言う人は&lt;/div&gt;&lt;div style=&quot;border-color: var(--border-color);&quot;&gt;- 会話のボールを意識する人&lt;/div&gt;&lt;div style=&quot;border-color: var(--border-color);&quot;&gt;- 権力者&lt;/div&gt;&lt;div style=&quot;border-color: var(--border-color);&quot;&gt;- 正直者&lt;/div&gt;&lt;div style=&quot;border-color: var(--border-color);&quot;&gt;これらの要素を自由要旨する&lt;/div&gt;&lt;/div&gt;" style="rounded=1;whiteSpace=wrap;html=1;shadow=0;labelBackgroundColor=none;strokeColor=none;strokeWidth=3;fillColor=#2F5B7C;fontFamily=Helvetica;fontSize=14;fontColor=#FFFFFF;align=left;spacing=5;arcSize=0;perimeterSpacing=2;" parent="aPSkY1ON9DCGhRT_XYcT-1" vertex="1">
          <mxGeometry x="10" y="30" width="150" height="150" as="geometry" />
        </mxCell>
        <mxCell id="aPSkY1ON9DCGhRT_XYcT-4" value="&lt;span style=&quot;font-size: 14px; font-weight: 400;&quot;&gt;「私」の高頻度&lt;/span&gt;&lt;div&gt;&lt;span style=&quot;font-size: 14px; font-weight: 400;&quot;&gt;「ボール」を意識している/権力/正直&lt;/span&gt;&lt;br&gt;&lt;/div&gt;" style="rounded=1;whiteSpace=wrap;html=1;shadow=0;labelBackgroundColor=none;strokeColor=none;strokeWidth=3;fillColor=#2F5B7C;fontFamily=Helvetica;fontSize=16;fontColor=#FFFFFF;align=center;fontStyle=1;spacing=5;arcSize=0;perimeterSpacing=2;" parent="aPSkY1ON9DCGhRT_XYcT-1" vertex="1">
          <mxGeometry x="10" y="210" width="150" height="64" as="geometry" />
        </mxCell>
        <mxCell id="-XlEV9ZUg759hKqU9tYz-1" value="「我々」" style="swimlane;whiteSpace=wrap;html=1;" parent="1" vertex="1">
          <mxGeometry x="240" y="80" width="170" height="279.5" as="geometry" />
        </mxCell>
        <mxCell id="-XlEV9ZUg759hKqU9tYz-2" value="&lt;div&gt;「我々」&lt;/div&gt;仲間意識が強い" style="rounded=1;whiteSpace=wrap;html=1;shadow=0;labelBackgroundColor=none;strokeColor=none;strokeWidth=3;fillColor=#F08705;fontFamily=Helvetica;fontSize=14;fontColor=#FFFFFF;align=center;spacing=5;fontStyle=1;arcSize=0;perimeterSpacing=2;" parent="-XlEV9ZUg759hKqU9tYz-1" vertex="1">
          <mxGeometry x="10" y="210" width="150" height="63" as="geometry" />
        </mxCell>
        <mxCell id="-XlEV9ZUg759hKqU9tYz-3" style="edgeStyle=orthogonalEdgeStyle;rounded=0;orthogonalLoop=1;jettySize=auto;html=1;" parent="-XlEV9ZUg759hKqU9tYz-1" source="-XlEV9ZUg759hKqU9tYz-4" target="-XlEV9ZUg759hKqU9tYz-2" edge="1">
          <mxGeometry relative="1" as="geometry" />
        </mxCell>
        <mxCell id="-XlEV9ZUg759hKqU9tYz-4" value="仲間意識が強いが&lt;div&gt;決断力が低いケースが多い&lt;/div&gt;" style="rounded=1;whiteSpace=wrap;html=1;shadow=0;labelBackgroundColor=none;strokeColor=none;strokeWidth=3;fillColor=#f5af58;fontFamily=Helvetica;fontSize=14;fontColor=#FFFFFF;align=left;spacing=5;arcSize=0;perimeterSpacing=2;" parent="-XlEV9ZUg759hKqU9tYz-1" vertex="1">
          <mxGeometry x="10" y="30" width="150" height="150" as="geometry" />
        </mxCell>
        <mxCell id="lMSPIOYMENWqqAaY9oEz-1" value="「まぁ」" style="swimlane;whiteSpace=wrap;html=1;" parent="1" vertex="1">
          <mxGeometry x="440" y="80" width="170" height="279.5" as="geometry" />
        </mxCell>
        <mxCell id="lMSPIOYMENWqqAaY9oEz-3" value="「まぁ」&lt;br&gt;&lt;div&gt;妥協&lt;/div&gt;" style="rounded=1;whiteSpace=wrap;html=1;shadow=0;labelBackgroundColor=none;strokeColor=none;strokeWidth=3;fillColor=#1699d3;fontFamily=Helvetica;fontSize=14;fontColor=#FFFFFF;align=center;spacing=5;fontStyle=1;arcSize=7;perimeterSpacing=2;" parent="lMSPIOYMENWqqAaY9oEz-1" vertex="1">
          <mxGeometry x="10" y="210" width="150" height="60" as="geometry" />
        </mxCell>
        <mxCell id="lMSPIOYMENWqqAaY9oEz-5" style="edgeStyle=orthogonalEdgeStyle;rounded=0;orthogonalLoop=1;jettySize=auto;html=1;entryX=0.5;entryY=0;entryDx=0;entryDy=0;" parent="lMSPIOYMENWqqAaY9oEz-1" source="lMSPIOYMENWqqAaY9oEz-6" target="lMSPIOYMENWqqAaY9oEz-3" edge="1">
          <mxGeometry relative="1" as="geometry" />
        </mxCell>
        <mxCell id="lMSPIOYMENWqqAaY9oEz-6" value="&lt;div&gt;妥協。&lt;/div&gt;&lt;div&gt;「本当は納得していないけど、争いごとを避けたいから肯定しておくか」といった心理が働いた結果、「まぁ…」と言ってしまいます。&lt;/div&gt;" style="rounded=1;whiteSpace=wrap;html=1;shadow=0;labelBackgroundColor=none;strokeColor=none;strokeWidth=3;fillColor=#64bbe2;fontFamily=Helvetica;fontSize=14;fontColor=#FFFFFF;align=left;spacing=5;arcSize=7;perimeterSpacing=2;" parent="lMSPIOYMENWqqAaY9oEz-1" vertex="1">
          <mxGeometry x="10" y="30" width="150" height="149.5" as="geometry" />
        </mxCell>
      </root>
    </mxGraphModel>
  </diagram>
  <diagram name="eye" id="4vUhu1GpD3GjMyQlFbg2">
    <mxGraphModel dx="1674" dy="818" grid="1" gridSize="10" guides="1" tooltips="1" connect="1" arrows="1" fold="1" page="1" pageScale="1" pageWidth="827" pageHeight="1169" math="0" shadow="0">
      <root>
        <mxCell id="-l6WhKaZY_UiSqFfSO3f-0" />
        <mxCell id="-l6WhKaZY_UiSqFfSO3f-1" parent="-l6WhKaZY_UiSqFfSO3f-0" />
        <mxCell id="-l6WhKaZY_UiSqFfSO3f-2" value="高頻度の「私」" style="swimlane;whiteSpace=wrap;html=1;" parent="-l6WhKaZY_UiSqFfSO3f-1" vertex="1">
          <mxGeometry x="40" y="80" width="170" height="280.5" as="geometry" />
        </mxCell>
        <mxCell id="-l6WhKaZY_UiSqFfSO3f-3" style="edgeStyle=orthogonalEdgeStyle;rounded=0;orthogonalLoop=1;jettySize=auto;html=1;entryX=0.5;entryY=0;entryDx=0;entryDy=0;" parent="-l6WhKaZY_UiSqFfSO3f-2" edge="1">
          <mxGeometry relative="1" as="geometry">
            <mxPoint x="85" y="182" as="sourcePoint" />
            <mxPoint x="85" y="212.5" as="targetPoint" />
          </mxGeometry>
        </mxCell>
        <mxCell id="-l6WhKaZY_UiSqFfSO3f-4" value="&lt;div style=&quot;border-color: var(--border-color);&quot;&gt;&lt;div style=&quot;border-color: var(--border-color);&quot;&gt;「私」を多く言う人は&lt;/div&gt;&lt;div style=&quot;border-color: var(--border-color);&quot;&gt;- 会話のボールを意識する人&lt;/div&gt;&lt;div style=&quot;border-color: var(--border-color);&quot;&gt;- 権力者&lt;/div&gt;&lt;div style=&quot;border-color: var(--border-color);&quot;&gt;- 正直者&lt;/div&gt;&lt;div style=&quot;border-color: var(--border-color);&quot;&gt;これらの要素を自由要旨する&lt;/div&gt;&lt;/div&gt;" style="rounded=1;whiteSpace=wrap;html=1;shadow=0;labelBackgroundColor=none;strokeColor=none;strokeWidth=3;fillColor=#2F5B7C;fontFamily=Helvetica;fontSize=14;fontColor=#FFFFFF;align=left;spacing=5;arcSize=0;perimeterSpacing=2;" parent="-l6WhKaZY_UiSqFfSO3f-2" vertex="1">
          <mxGeometry x="10" y="30" width="150" height="150" as="geometry" />
        </mxCell>
        <mxCell id="-l6WhKaZY_UiSqFfSO3f-5" value="&lt;span style=&quot;font-size: 14px; font-weight: 400;&quot;&gt;「私」の高頻度&lt;/span&gt;&lt;div&gt;&lt;span style=&quot;font-size: 14px; font-weight: 400;&quot;&gt;「ボール」を意識している/権力/正直&lt;/span&gt;&lt;br&gt;&lt;/div&gt;" style="rounded=1;whiteSpace=wrap;html=1;shadow=0;labelBackgroundColor=none;strokeColor=none;strokeWidth=3;fillColor=#2F5B7C;fontFamily=Helvetica;fontSize=16;fontColor=#FFFFFF;align=center;fontStyle=1;spacing=5;arcSize=0;perimeterSpacing=2;" parent="-l6WhKaZY_UiSqFfSO3f-2" vertex="1">
          <mxGeometry x="10" y="210" width="150" height="64" as="geometry" />
        </mxCell>
        <mxCell id="-l6WhKaZY_UiSqFfSO3f-6" value="瞬き" style="swimlane;whiteSpace=wrap;html=1;startSize=23;" parent="-l6WhKaZY_UiSqFfSO3f-1" vertex="1">
          <mxGeometry x="240" y="80" width="360" height="279.5" as="geometry" />
        </mxCell>
        <mxCell id="-l6WhKaZY_UiSqFfSO3f-7" value="&lt;div&gt;&lt;/div&gt;" style="rounded=1;whiteSpace=wrap;html=1;shadow=0;labelBackgroundColor=none;strokeColor=none;strokeWidth=3;fillColor=#F08705;fontFamily=Helvetica;fontSize=14;fontColor=#FFFFFF;align=center;spacing=5;fontStyle=1;arcSize=0;perimeterSpacing=2;" parent="-l6WhKaZY_UiSqFfSO3f-6" vertex="1">
          <mxGeometry x="10" y="210" width="150" height="63" as="geometry" />
        </mxCell>
        <mxCell id="-l6WhKaZY_UiSqFfSO3f-8" style="edgeStyle=orthogonalEdgeStyle;rounded=0;orthogonalLoop=1;jettySize=auto;html=1;" parent="-l6WhKaZY_UiSqFfSO3f-6" source="-l6WhKaZY_UiSqFfSO3f-9" target="-l6WhKaZY_UiSqFfSO3f-7" edge="1">
          <mxGeometry relative="1" as="geometry" />
        </mxCell>
        <UserObject label="6~10の瞬きはリラックスされたフラットな状態" link="https://zenn.dev/minegishirei/books/engineer_psychology/viewer/1000eye#%E7%9E%AC%E3%81%8D%E3%81%AE%E5%9B%9E%E6%95%B0%E3%81%8C10%E7%A7%92%E3%81%AB1~2%E5%9B%9E%EF%BC%9A%E6%AD%A3%E5%B8%B8%E3%81%AA%E7%8A%B6%E6%85%8B" id="-l6WhKaZY_UiSqFfSO3f-9">
          <mxCell style="rounded=1;whiteSpace=wrap;html=1;shadow=0;labelBackgroundColor=none;strokeColor=none;strokeWidth=3;fillColor=#f5af58;fontFamily=Helvetica;fontSize=14;fontColor=#FFFFFF;align=left;spacing=5;arcSize=0;perimeterSpacing=2;" parent="-l6WhKaZY_UiSqFfSO3f-6" vertex="1">
            <mxGeometry x="10" y="30" width="150" height="150" as="geometry" />
          </mxCell>
        </UserObject>
        <mxCell id="-l6WhKaZY_UiSqFfSO3f-11" value="" style="rounded=1;whiteSpace=wrap;html=1;shadow=0;labelBackgroundColor=none;strokeColor=none;strokeWidth=3;fillColor=#1699d3;fontFamily=Helvetica;fontSize=14;fontColor=#FFFFFF;align=center;spacing=5;fontStyle=1;arcSize=0;perimeterSpacing=2;" parent="-l6WhKaZY_UiSqFfSO3f-6" vertex="1">
          <mxGeometry x="200" y="210" width="150" height="60" as="geometry" />
        </mxCell>
        <mxCell id="-l6WhKaZY_UiSqFfSO3f-12" style="edgeStyle=orthogonalEdgeStyle;rounded=0;orthogonalLoop=1;jettySize=auto;html=1;entryX=0.5;entryY=0;entryDx=0;entryDy=0;" parent="-l6WhKaZY_UiSqFfSO3f-6" source="-l6WhKaZY_UiSqFfSO3f-13" target="-l6WhKaZY_UiSqFfSO3f-11" edge="1">
          <mxGeometry relative="1" as="geometry" />
        </mxCell>
        <UserObject label="瞬きの数が増えだしたら、緊張やストレスの合図だと思ってよ" link="https://zenn.dev/minegishirei/books/engineer_psychology/viewer/1000eye#%E6%A5%B5%E7%AB%AF%E3%81%AB%E5%B0%91%E3%81%AA%E3%81%84%E7%9E%AC%E3%81%8D%EF%BC%9A%E5%99%93%E3%81%AE%E5%8F%AF%E8%83%BD%E6%80%A7%E3%80%81%E7%B7%8A%E5%BC%B5%E7%8A%B6%E6%85%8B" id="-l6WhKaZY_UiSqFfSO3f-13">
          <mxCell style="rounded=1;whiteSpace=wrap;html=1;shadow=0;labelBackgroundColor=none;strokeColor=none;strokeWidth=3;fillColor=#64bbe2;fontFamily=Helvetica;fontSize=14;fontColor=#FFFFFF;align=left;spacing=5;arcSize=0;perimeterSpacing=2;" parent="-l6WhKaZY_UiSqFfSO3f-6" vertex="1">
            <mxGeometry x="200" y="30" width="150" height="149.5" as="geometry" />
          </mxCell>
        </UserObject>
      </root>
    </mxGraphModel>
  </diagram>
  <diagram id="CXgNac2Sz5XJzP153T1H" name="ページ3">
    <mxGraphModel dx="1674" dy="818" grid="1" gridSize="10" guides="1" tooltips="1" connect="1" arrows="1" fold="1" page="1" pageScale="1" pageWidth="827" pageHeight="1169" math="0" shadow="0">
      <root>
        <mxCell id="0" />
        <mxCell id="1" parent="0" />
      </root>
    </mxGraphModel>
  </diagram>
</mxfile>
